<?xml version="1.0" encoding="UTF-8"?><svg xmlns="http://www.w3.org/2000/svg" width="88.74mm" height="103.78mm" viewBox="0 0 251.54 294.18"><defs><style>.cls-1,.cls-2{fill:#fff;}.cls-3{fill:#1d1d1b;}.cls-4{fill:#394999;stroke-linecap:round;stroke-linejoin:bevel;}.cls-4,.cls-2{stroke:#1d1d1b;stroke-width:2px;}.cls-2{stroke-linejoin:round;}</style></defs><g id="Livello_3"><path class="cls-1" d="M81.99,250.07v-6.38c-22.22-8.29-42.05-22.97-56.46-41.96C8.83,179.73,0,153.46,0,125.77,0,56.42,56.42,0,125.77,0s125.77,56.42,125.77,125.77c0,27.69-8.83,53.96-25.53,75.96-14.42,18.99-34.24,33.67-56.46,41.96v5.95l-43.99,44.53-43.57-44.1Z"/></g><g id="Livello_2"><g><g><path class="cls-3" d="M81.67,144.69c0-12.03,2.76-21.17,9.62-21.17,4.73,0,6.55,4.36,7.59,8.41l-3.8,1.66c-.83-3.13-1.72-5.15-3.8-5.15-3.48,0-4.78,6.99-4.78,16.26s1.3,16.26,4.78,16.26c2.34,0,3.28-2.7,3.85-6.2l3.85,1.72c-.88,4.48-2.81,9.39-7.7,9.39-6.86,0-9.62-9.2-9.62-21.17Z"/><path class="cls-3" d="M116.09,165.12v-18.59h-7.8v18.59h-4.68v-40.92h4.68v17.42h7.8v-17.42h4.68v40.92h-4.68Z"/><path class="cls-3" d="M126.96,165.12v-40.92h4.68v40.92h-4.68Z"/><path class="cls-3" d="M137.88,165.12v-40.92h13.52v4.91h-8.84v12.7h8.48v4.85h-8.48v13.56h8.84v4.91h-13.52Z"/><path class="cls-3" d="M156.6,165.12v-40.92h13.52v4.91h-8.84v12.7h8.48v4.85h-8.48v18.47h-4.68Z"/></g><rect class="cls-3" x="80.28" y="173.32" width="91.22" height="3.4"/><path class="cls-3" d="M126.05,114.33c20.75,0,45.61,2.29,45.61,2.29v-35.05s-18.86,0-18.86,0l-1.03,17.01h-16v-17.01s-9.72,0-9.72,0h-10.04v17.01h-16l-1.03-17.01h-18.86v35.05s24.86-2.29,45.61-2.29h.32Z"/></g><g><path class="cls-3" d="M60.68,189.85c-4.11,3.73-8.09,5.62-10.22,3.27-1.47-1.62-.54-3.59,.52-5.2l1.74,.79c-.81,1.25-1.23,2.18-.59,2.9,1.08,1.19,3.87-.53,7.04-3.4,3.17-2.87,5.16-5.48,4.08-6.67-.73-.8-1.94-.28-3.31,.6l-.6-1.85c1.81-1.09,4.08-1.95,5.6-.28,2.13,2.35-.17,6.14-4.26,9.85Z"/><path class="cls-3" d="M45.92,187.31l-1.25-1.76,11.37-8.1c1.82-1.3,2.03-2.33,1.4-3.21-.63-.88-1.68-1.04-3.5,.26l-11.37,8.1-1.24-1.74,11.28-8.04c3.07-2.19,5.41-1.68,6.68,.1,1.27,1.78,.98,4.16-2.09,6.35l-11.28,8.04Z"/><path class="cls-3" d="M55.52,167.88l-16.49,9.22-1.05-1.89,14.51-8.11-1.99-3.56,1.98-1.11,3.04,5.45Z"/><path class="cls-3" d="M51.59,160.45l-15.14,6.87,1.03,2.27-2.06,.94-2.96-6.51,2.06-.94,1.03,2.27,15.14-6.87,.89,1.97Z"/><path class="cls-3" d="M31.21,160.85l-.67-2.05,13.26-4.36c2.12-.7,2.63-1.62,2.29-2.65s-1.29-1.49-3.42-.8l-13.26,4.36-.67-2.03,13.15-4.32c3.58-1.18,5.66,0,6.35,2.08,.68,2.07-.3,4.27-3.88,5.44l-13.15,4.32Z"/><path class="cls-3" d="M45.06,139.86l-6.89,3.39,.25,1.25,7.28-1.44,.42,2.12-18.53,3.66-.71-3.6c-.44-2.24,1.4-4.29,4.79-4.96,3.25-.64,4.88,.28,5.54,1.13l7.41-3.84,.45,2.28Zm-15.92,5.23l.24,1.2,6.84-1.35-.24-1.2c-.26-1.29-1.8-1.67-3.8-1.28-2.03,.4-3.29,1.33-3.03,2.63Z"/><path class="cls-3" d="M43.94,130.24l-4.04,.94,.29,3.47,4.14,.25,.18,2.1-19.09-1.63-.21-2.46,18.55-4.78,.18,2.1Zm-16.11,3.71l10.11,.65-.25-2.96-9.86,2.32Z"/><path class="cls-3" d="M43.81,127.09l-18.89-.31,.03-2.16,16.62,.27,.06-4.08,2.27,.04-.1,6.24Z"/><path class="cls-3" d="M45.34,109.85l-8.46-1.45-.61,3.55,8.46,1.45-.37,2.13-18.61-3.2,.37-2.13,7.93,1.36,.61-3.55-7.93-1.36,.37-2.13,18.61,3.2-.37,2.13Z"/><path class="cls-3" d="M46.29,105.45l-18.14-5.27,1.74-5.99,2.18,.63-1.14,3.92,5.63,1.64,1.09-3.76,2.15,.62-1.09,3.76,6.01,1.75,1.14-3.92,2.18,.63-1.74,5.99Z"/><path class="cls-3" d="M50.71,92.67l-7.62-.99-.49,1.17,6.86,2.83-.83,2-17.45-7.22,1.4-3.39c.87-2.11,3.55-2.79,6.74-1.47,3.06,1.27,3.9,2.94,3.98,4.01l8.3,.91-.89,2.15Zm-16.14-4.47l-.47,1.13,6.44,2.66,.47-1.13c.5-1.22-.57-2.39-2.46-3.17-1.91-.79-3.48-.71-3.98,.51Z"/><path class="cls-3" d="M52.57,88.76l-16.75-8.72,1-1.92,16.75,8.72-1,1.92Z"/><path class="cls-3" d="M55.55,83.37l-14.13-8.77-1.32,2.12-1.92-1.2,3.77-6.07,1.92,1.19-1.32,2.12,14.12,8.77-1.14,1.83Z"/><path class="cls-3" d="M61.77,74.41l-3.64-1.99-2.1,2.78,2.92,2.95-1.27,1.69-13.13-13.94,1.49-1.97,17.01,8.81-1.27,1.69Zm-14.48-7.98l7.1,7.23,1.79-2.37-8.9-4.85Z"/><path class="cls-3" d="M52.41,56c1.35-1.43,3.37-.98,5.23,.11l-.65,1.8c-1.24-.71-2.26-1.07-2.93-.36-1.02,1.08,.55,3.55,3.94,6.75,3.38,3.19,5.95,4.62,6.97,3.54,.51-.54,.56-1.22,.32-1.94l-3.28-3.09-1.4,1.48-1.65-1.55,2.73-2.9,5.69,5.36c.47,1.69,.27,3.09-.76,4.19-2.11,2.23-5.95,.49-10.15-3.47-4.22-3.98-6.17-7.7-4.06-9.93Z"/><path class="cls-3" d="M70.41,65.14l-12.27-14.36,4.74-4.05,1.47,1.72-3.1,2.65,3.81,4.46,2.97-2.54,1.45,1.7-2.97,2.54,4.07,4.76,3.1-2.65,1.47,1.72-4.75,4.05Z"/><path class="cls-3" d="M79.93,57.67l-10.38-15.79,1.8-1.19,10.38,15.79-1.8,1.19Z"/><path class="cls-3" d="M88.94,52.36l-9.48-9.84,6.2,11.59-1.9,1.02-8.91-16.66,1.9-1.02,9.13,9.44-5.95-11.14,1.9-1.02,8.91,16.66-1.8,.96Z"/><path class="cls-3" d="M94.27,49.92l-6.2-15.42-2.32,.93-.84-2.1,6.63-2.67,.84,2.1-2.32,.93,6.2,15.42-2,.81Z"/><path class="cls-3" d="M99.95,47.75l-5.31-18.13,5.99-1.76,.64,2.17-3.91,1.15,1.65,5.63,3.75-1.1,.63,2.15-3.75,1.1,1.76,6.01,3.91-1.15,.64,2.17-5.99,1.76Z"/><path class="cls-3" d="M113.09,44.6l-3.26-6.95-1.25,.22,1.3,7.3-2.13,.38-3.32-18.59,3.61-.64c2.24-.4,4.26,1.48,4.87,4.89,.58,3.26-.37,4.87-1.23,5.51l3.7,7.48-2.29,.41Zm-4.93-16.01l-1.2,.21,1.22,6.86,1.2-.21c1.3-.23,1.71-1.77,1.35-3.78-.36-2.04-1.27-3.31-2.57-3.08Z"/><path class="cls-3" d="M123.11,43.66l-4.44-12.91,.73,13.12-2.16,.12-1.05-18.86,2.16-.12,4.29,12.41-.7-12.61,2.16-.12,1.05,18.86-2.04,.11Z"/><path class="cls-3" d="M132.93,43.91l-.36-4.13-3.47-.2-.83,4.07-2.11-.12,4.29-18.68,2.47,.14,2.13,19.04-2.11-.12Zm-1.41-16.48l-2.06,9.92,2.97,.17-.91-10.09Z"/><path class="cls-3" d="M136.99,44.38l2.46-16.44-2.47-.37,.34-2.24,7.08,1.06-.34,2.24-2.47-.37-2.46,16.44-2.14-.32Z"/><path class="cls-3" d="M143.05,45.44l4.19-18.42,2.11,.48-4.19,18.42-2.11-.48Z"/><path class="cls-3" d="M157.24,29.42c3.01,.98,2.84,5.52,1.17,10.66-1.69,5.17-4.22,8.9-7.23,7.92-3.03-.99-2.85-5.49-1.17-10.66,1.68-5.14,4.2-8.91,7.23-7.92Zm-.7,2.15c-1.55-.51-3.12,2.53-4.4,6.46-1.27,3.88-1.8,7.3-.25,7.81s3.14-2.58,4.41-6.46c1.28-3.93,1.8-7.3,.25-7.81Z"/><path class="cls-3" d="M162.44,52.23l2.23-13.47-5.59,11.89-1.95-.92,8.04-17.09,1.95,.92-2.12,12.96,5.38-11.43,1.95,.92-8.04,17.09-1.85-.87Z"/><path class="cls-3" d="M170.95,57.13l1.65-3.81-2.96-1.83-2.67,3.17-1.8-1.11,12.69-14.36,2.1,1.3-7.22,17.75-1.8-1.11Zm6.63-15.15l-6.55,7.73,2.53,1.57,4.02-9.3Z"/><path class="cls-3" d="M173.57,58.92l11.5-14.98,1.71,1.31-10.12,13.18,3.24,2.48-1.38,1.8-4.95-3.8Z"/><path class="cls-3" d="M182.51,66.33l13.53-13.19,4.36,4.47-1.62,1.58-2.85-2.92-4.2,4.09,2.73,2.8-1.6,1.56-2.73-2.8-4.48,4.37,2.85,2.92-1.62,1.58-4.36-4.47Z"/><path class="cls-3" d="M193.41,79.08l11.19-8.4-12.95,6.06-.48-.63,9.44-10.73-11.19,8.4-1.3-1.73,15.1-11.35,1.7,2.26-8.42,9.63,11.61-5.39,1.67,2.23-15.1,11.35-1.28-1.71Z"/><path class="cls-3" d="M195.78,82.76l16.44-9.31,3.07,5.43-1.97,1.12-2.01-3.55-5.1,2.89,1.93,3.4-1.95,1.1-1.93-3.41-5.45,3.09,2.01,3.55-1.97,1.12-3.07-5.43Z"/><path class="cls-3" d="M201.85,94.85l6.03-4.76-.5-1.17-6.82,2.93-.85-1.98,17.35-7.47,1.45,3.37c.9,2.09-.47,4.49-3.65,5.86-3.04,1.31-4.83,.75-5.65,.05l-6.44,5.31-.92-2.14Zm14.46-8.45l-.48-1.12-6.4,2.76,.48,1.12c.52,1.21,2.11,1.26,3.99,.45,1.9-.82,2.93-1.99,2.41-3.21Z"/><path class="cls-3" d="M222.91,97.09c.56,1.89-.85,3.41-2.72,4.46l-1.23-1.46c1.23-.72,2.06-1.41,1.78-2.36-.42-1.43-3.34-1.31-7.82,.02-4.45,1.32-6.99,2.83-6.57,4.25,.21,.71,.77,1.1,1.52,1.25l4.32-1.28-.58-1.96,2.17-.64,1.13,3.82-7.49,2.22c-1.7-.45-2.81-1.32-3.24-2.77-.87-2.95,2.57-5.39,8.1-7.04,5.56-1.65,9.75-1.47,10.63,1.48Z"/><path class="cls-3" d="M205.96,108.05l18.58-3.37,1.11,6.14-2.23,.4-.73-4.02-5.77,1.05,.7,3.85-2.2,.4-.7-3.85-6.16,1.12,.73,4.02-2.23,.4-1.11-6.14Z"/><path class="cls-3" d="M207.74,121.88l12.86-4.6-13.11,.89-.15-2.15,18.85-1.28,.15,2.15-12.36,4.45,12.6-.86,.15,2.15-18.85,1.28-.14-2.03Z"/><path class="cls-3" d="M217.31,126.18c5.54,.27,9.7,1.74,9.55,4.9-.1,2.18-2.15,2.92-4.04,3.31l-.68-1.79c1.46-.31,2.41-.68,2.46-1.64,.08-1.61-3.12-2.36-7.39-2.56-4.27-.21-7.53,.24-7.6,1.85-.05,1.08,1.17,1.57,2.77,1.91l-.88,1.74c-2.05-.51-4.27-1.5-4.16-3.76,.15-3.16,4.46-4.23,9.97-3.97Z"/><path class="cls-3" d="M207,137.18l7.86,1.21,11.36-1.94-.35,2.3-8.65,1.09,7.91,3.67-.34,2.23-10.25-5.25-7.86-1.21,.33-2.11Z"/><path class="cls-3" d="M204.9,147.48l18.02,5.66-1.87,5.96-2.16-.68,1.22-3.89-5.59-1.76-1.17,3.73-2.14-.67,1.17-3.73-8.13-2.55,.65-2.06Z"/><path class="cls-3" d="M218.4,166.48c-1.28,2.9-5.78,2.28-10.72,.09-4.97-2.2-8.43-5.09-7.15-7.99,1.29-2.92,5.75-2.29,10.72-.09,4.95,2.19,8.44,5.07,7.15,7.99Zm-2.07-.92c.66-1.49-2.2-3.36-5.98-5.03-3.73-1.65-7.09-2.53-7.75-1.04-.66,1.49,2.25,3.38,5.98,5.03,3.78,1.67,7.09,2.53,7.75,1.03Z"/><path class="cls-3" d="M195.42,168.99l7.4,2.08,.65-1.09-6.38-3.79,1.1-1.86,16.23,9.66-1.88,3.16c-1.17,1.96-3.91,2.25-6.88,.49-2.85-1.69-3.44-3.47-3.36-4.54l-8.08-2.1,1.19-2Zm15.33,6.75l.63-1.05-5.99-3.56-.63,1.05c-.67,1.13,.22,2.45,1.98,3.49,1.78,1.06,3.34,1.2,4.01,.07Z"/><path class="cls-3" d="M200.94,177.85c4.42,3.36,7,6.93,5.08,9.45-1.32,1.74-3.43,1.19-5.21,.44l.45-1.86c1.38,.57,2.37,.81,2.95,.05,.97-1.28-1.23-3.71-4.63-6.3-3.4-2.59-6.34-4.07-7.31-2.79-.65,.86,.08,1.96,1.2,3.14l-1.71,.93c-1.4-1.58-2.66-3.66-1.3-5.45,1.92-2.52,6.07-.96,10.47,2.39Z"/><path class="cls-3" d="M187.5,179.7l13.75,12.95-4.28,4.54-1.65-1.55,2.8-2.97-4.27-4.02-2.68,2.85-1.63-1.53,2.68-2.85-4.56-4.29-2.8,2.97-1.65-1.55,4.28-4.54Z"/></g><path class="cls-3" d="M125.89,49.32c-42.07,0-76.3,34.23-76.3,76.3,0,29.69,17.05,55.45,41.87,68.05v-2.25c-23.67-12.44-39.87-37.26-39.87-65.81,0-40.97,33.33-74.3,74.3-74.3s74.3,33.33,74.3,74.3c0,28.55-16.19,53.37-39.87,65.81v2.25c24.81-12.61,41.87-38.37,41.87-68.05,0-42.07-34.23-76.3-76.3-76.3Z"/><path class="cls-3" d="M125.89,11.34C62.88,11.34,11.62,62.6,11.62,125.61c0,51.02,33.61,94.33,79.85,108.97v-2.1C46.35,217.91,13.62,175.52,13.62,125.61,13.62,63.71,63.98,13.34,125.89,13.34s112.27,50.37,112.27,112.27c0,49.9-32.73,92.3-77.85,106.87v2.1c46.24-14.64,79.85-57.95,79.85-108.97,0-63.01-51.26-114.27-114.27-114.27Z"/><g><rect class="cls-2" x="94.91" y="183.4" width="61.96" height="61.96"/><rect class="cls-4" x="103.98" y="223.46" width="43.82" height="43.82" transform="translate(-136.63 160.89) rotate(-45)"/><polygon class="cls-4" points="156.88 183.4 125.89 214.39 94.91 183.4 156.88 183.4"/></g></g></svg>